<?xml version="1.0" encoding="utf-8"?>
<!-- Generator: Adobe Illustrator 24.1.1, SVG Export Plug-In . SVG Version: 6.00 Build 0)  -->
<svg version="1.1" id="a9d626b2-a7f0-43ec-8804-7ce17aec8e7a"
	 xmlns="http://www.w3.org/2000/svg" xmlns:xlink="http://www.w3.org/1999/xlink" x="0px" y="0px" width="28.1px" height="21px"
	 viewBox="0 0 28.1 21" style="enable-background:new 0 0 28.1 21;" xml:space="preserve">
<g id="b38f6d64-414b-4465-bdb3-5f0812de4221">
	<path d="M28,2.4c-0.1-0.2-0.4-0.3-0.5-0.3H7.3L6.6,0.4C6.6,0.2,6.3,0,6,0H0.6C0.3,0,0,0.4,0,0.7l0,0C0,1,0.3,1.3,0.6,1.3h5
		l4.5,12.4l-1.2,4.7c-0.1,0.4,0.1,0.7,0.5,0.8h0.2h1.6c0.4,1.3,1.7,2,3,1.7c0.8-0.3,1.5-0.9,1.7-1.7h4.3c0.4,1.3,1.7,2,3,1.7
		c1.3-0.4,2-1.7,1.7-3c-0.4-1.3-1.7-2-3-1.7c-0.8,0.3-1.5,0.9-1.7,1.7h-4.4c-0.4-1.3-1.8-2-3-1.7c-0.8,0.3-1.5,0.9-1.7,1.7h-0.7
		l0.9-3.6h13.9c0.4,0,0.6-0.2,0.6-0.5l2.3-10.9C28.1,2.7,28.1,2.5,28,2.4z M22.4,17.5c0.6,0.2,1,0.8,0.9,1.4
		c-0.1,0.4-0.4,0.7-0.9,0.9c-0.6,0-1.1-0.5-1.1-1.1l0,0C21.2,17.9,21.8,17.5,22.4,17.5z M13.5,17.5c0.6,0,1.1,0.5,1.1,1.1
		c0,0.6-0.5,1.1-1.1,1.1c-0.6,0-1.2-0.5-1.2-1.1v-0.2C12.3,17.8,12.9,17.5,13.5,17.5z M7.8,3.4h18.9l-2,9.6H11.3L7.8,3.4z"/>
</g>
</svg>
