<?xml version="1.0" encoding="utf-8"?>
<!-- Generator: Adobe Illustrator 24.1.1, SVG Export Plug-In . SVG Version: 6.00 Build 0)  -->
<svg version="1.1" id="Layer_1" xmlns="http://www.w3.org/2000/svg" xmlns:xlink="http://www.w3.org/1999/xlink" x="0px" y="0px"
	 width="107.8px" height="136px" viewBox="0 0 107.8 136" style="enable-background:new 0 0 107.8 136;" xml:space="preserve">
<style type="text/css">
	.st0{fill:#FFFFFF;}
	.st1{fill:#DC3545;}
</style>
<g id="Layer_2_1_">
</g>
<g id="Capa_1">
	<g>
		<path class="st0" d="M0,119.8c0,8.9,8.3,16.2,18.6,16.2h70.6c10.2,0,18.6-7.3,18.6-16.2v-0.2l-8.1-91c-0.1-0.6-0.6-1.2-1.3-1.2
			H79.2v-2.2C79.2,11.3,67.8,0,53.9,0S28.6,11.3,28.6,25.3v2.2H9.4c-0.7,0-1.2,0.5-1.3,1.2L0,119.6V119.8z M31.2,25.3
			c0-12.5,10.2-22.7,22.7-22.7s22.7,10.2,22.7,22.7v2.2H31.2V25.3z M2.6,119.7l8-89.7h18v14.4c0,0.7,0.6,1.3,1.3,1.3
			s1.3-0.6,1.3-1.3V30h45.4v14.4c0,0.7,0.6,1.3,1.3,1.3s1.3-0.6,1.3-1.3V30h18l8,89.8v0.1c-0.1,3.7-1.8,7.1-4.9,9.6
			c-3,2.4-6.9,3.8-11.1,3.8H18.6c-4.2,0-8.1-1.4-11.1-3.8c-3.1-2.5-4.9-6-4.9-9.7v-0.1L2.6,119.7z"/>
		<g>
			<path class="st0" d="M75.8,93.7l-7.3-14.5C68.4,79,68.4,79,68.1,79H62l-2.5,2.6c-0.1,0,6-0.1,6.9-0.1c0.1,0,0.1,0.1,0.4,0.1
				l4.5,9.2c0.1,0.1-0.1,0.4-0.4,0.4H36.6c-0.3,0-0.4-0.1-0.4-0.4l4.5-9.2h0.1c0.8,0,6.9,0.1,6.9,0.1l-2.5-2.9h-6
				c-0.1,0-0.1,0.1-0.4,0.1l-6.9,14.7c-0.1,0.1,0.3,0.4,0.4,0.4H76C75.8,93.8,76,93.7,75.8,93.7z"/>
			<path class="st1" d="M53.8,60c-5.5,0-10,4.5-10,10l0,0c0.1,1.8,0.5,3.7,1.4,5.4c1.3,2,2.8,3.8,4.5,5.4c1.4,2,3.1,5.1,3.7,5.9
				c0.1,0.1,0.1,0.4,0.4,0.4c0.3,0,0.4-0.1,0.5-0.4c1.1-2.1,2.2-4.1,3.7-5.9c1.1-1.4,3.1-2.9,4.5-5.4c1.1-1.4,1.7-3.3,1.7-5.1
				C64.1,64.6,59.5,60,53.8,60z M53.8,75.3c-3,0-5.4-2.4-5.4-5.4c0-3,2.4-5.4,5.4-5.4c3,0,5.4,2.4,5.4,5.4
				C59.2,73,56.9,75.3,53.8,75.3z"/>
		</g>
	</g>
</g>
</svg>
