<svg width="92" height="30" viewBox="0 0 92 30" fill="none" xmlns="http://www.w3.org/2000/svg">
<g clip-path="url(#clip0_0_597)">
<path d="M0 13.8859L11.4767 0.526489H17.8654L8.55793 11.0526L18.5356 29.3921H12.7378L4.8897 14.4938L0 20.1619V13.8872V13.8859Z" fill="#FBFBFB"/>
<path d="M24.7274 28.7448C21.2958 27.1259 19.8761 23.9669 19.7188 19.3925H25.2403C25.358 23.401 27.2522 25.3442 31.629 25.3442C35.3752 25.3442 37.0712 23.4417 37.0712 21.0928C37.0712 20.0805 36.7553 19.231 36.0851 18.7045C34.705 17.6108 32.4169 17.125 29.933 16.6392C27.7241 16.1534 25.4769 15.5862 23.662 14.4531C21.8483 13.2794 20.7036 11.4163 20.7036 8.25857C20.7036 6.80117 21.0975 5.42518 21.769 4.16999C23.2693 1.65959 26.1868 0 30.7222 0C38.1763 0 41.4493 3.52269 41.6463 9.31157H36.2821C36.0851 5.99238 34.5464 4.45359 30.6429 4.45359C27.2113 4.45359 25.9105 6.15388 25.9105 8.17848C25.9105 9.15007 26.2264 9.91947 26.857 10.4053C28.1974 11.4176 30.3666 11.8627 32.8121 12.3892C35.1386 12.875 37.4268 13.4829 39.2405 14.6567C41.0541 15.8305 42.2372 17.7736 42.2372 20.972C42.2372 22.5909 41.8433 24.089 41.0541 25.507C39.3978 28.2196 36.2424 30.0013 31.5497 30.0013C28.7103 30.0013 26.4618 29.5969 24.7274 28.7461V28.7448Z" fill="#FBFBFB"/>
<path d="M46.8135 1.13312H52.0192V25.0199H65.5857V30H46.8123V1.13312H46.8135Z" fill="#FBFBFB"/>
<path d="M84.1646 12.6452H67.114V17.6358H84.1646V12.6452Z" fill="#FBFBFB"/>
<path d="M82.2167 1.56798L78.7791 5.09686L88.5629 15.1404L92.0005 11.6115L82.2167 1.56798Z" fill="#FBFBFB"/>
<path d="M88.5622 15.1415L78.7783 25.1851L82.216 28.7139L91.9998 18.6704L88.5622 15.1415Z" fill="#FBFBFB"/>
</g>
<defs>
<clipPath id="clip0_0_597">
<rect width="92" height="30" fill="white"/>
</clipPath>
</defs>
</svg>
